<svg width="455" height="439" viewBox="0 0 455 439" fill="none" xmlns="http://www.w3.org/2000/svg">
<path d="M104.84 344.88L101.02 346.16L95.5099 365.41L89.5599 346.29L70.6699 340.78L89.4299 334.84L94.9199 314.52L100.88 334.7L118.71 340.23L104.84 344.88Z" fill="#EBEBEB"/>
<path d="M119.79 254.82L117.92 255.45L115.22 264.88L112.3 255.52L103.05 252.82L112.24 249.9L114.93 239.95L117.85 249.84L126.59 252.54L119.79 254.82Z" fill="#EBEBEB"/>
<path d="M147.73 358.27L145.85 358.9L143.16 368.33L140.24 358.97L130.98 356.27L140.18 353.35L142.87 343.4L145.79 353.29L154.52 356L147.73 358.27Z" fill="#EBEBEB"/>
<path d="M294.86 24.54L291.78 25.58L287.32 41.13L282.51 25.68L267.25 21.23L282.41 16.42L286.85 0L291.67 16.31L306.07 20.78L294.86 24.54Z" fill="#F5F5F5"/>
<path d="M333.31 48.89L331.38 49.53L328.61 59.22L325.61 49.6L316.1 46.82L325.55 43.83L328.31 33.6L331.32 43.76L340.29 46.54L333.31 48.89Z" fill="#F5F5F5"/>
<path d="M297.56 66.61L296.36 67.01L294.63 73.05L292.76 67.05L286.83 65.32L292.72 63.46L294.44 57.08L296.31 63.42L301.91 65.15L297.56 66.61Z" fill="#F5F5F5"/>
<path d="M363.05 127.72L361.75 128.16L359.87 134.71L357.85 128.2L351.41 126.33L357.8 124.3L359.67 117.38L361.7 124.25L367.78 126.14L363.05 127.72Z" fill="#EBEBEB"/>
<path d="M355.92 389.74L354.62 390.17L352.74 396.73L350.71 390.22L344.28 388.34L350.67 386.32L352.54 379.4L354.57 386.27L360.64 388.15L355.92 389.74Z" fill="#EBEBEB"/>
<path d="M388.68 181.2L386.4 181.96L383.11 193.44L379.56 182.04L368.29 178.75L379.48 175.2L382.76 163.08L386.32 175.12L396.95 178.42L388.68 181.2Z" fill="#EBEBEB"/>
<path d="M342.03 426.22L339.75 426.98L336.46 438.46L332.91 427.06L321.64 423.77L332.83 420.22L336.11 408.1L339.67 420.14L350.3 423.44L342.03 426.22Z" fill="#EBEBEB"/>
<path d="M72.0201 283.81L71.0801 284.13L69.7301 288.84L68.2701 284.16L63.6401 282.81L68.2401 281.35L69.5801 276.37L71.0501 281.32L75.4101 282.67L72.0201 283.81Z" fill="#EBEBEB"/>
<path d="M398.68 144.16L398.03 144.38L397.09 147.66L396.08 144.4L392.86 143.46L396.05 142.45L396.99 138.99L398.01 142.43L401.04 143.37L398.68 144.16Z" fill="#EBEBEB"/>
<path d="M115.54 178.42C115.54 178.42 97.54 158.12 98.81 139.08C98.81 139.08 76.95 148.55 65.55 128.53C65.55 128.53 41.55 134.53 35.27 116.92C35.27 116.92 10.94 126.45 0 114.2C0 114.2 16.93 131.2 16.51 139.13C16.51 139.13 40 140.73 44.19 163.06C44.19 163.06 66.26 163.61 71.33 183.29C71.35 183.29 104.76 173.4 115.54 178.42Z" fill="#F5F5F5"/>
<path d="M5.94996 117.52L6.24996 117.64L7.08996 118.06L10.35 119.71L22.1 125.97C32.01 131.28 45.69 138.66 60.77 146.84C75.85 155.02 89.49 162.47 99.35 167.84L111.01 174.28L114.16 176.05L114.98 176.53C115.16 176.64 115.25 176.7 115.24 176.71C115.139 176.683 115.041 176.642 114.95 176.59L114.1 176.16L110.89 174.49L99.14 168.22C89.23 162.91 75.56 155.53 60.47 147.35C45.38 139.17 31.75 131.73 21.89 126.35L10.23 119.91L7.07996 118.13L6.25996 117.66C6.02996 117.59 5.93996 117.53 5.94996 117.52Z" fill="#E0E0E0"/>
<path d="M62.0498 134.33C62.8015 135.324 63.4704 136.377 64.0498 137.48C65.2498 139.48 66.8998 142.17 68.7898 145.14C70.6798 148.11 72.4498 150.76 73.7298 152.67C74.4711 153.674 75.1395 154.73 75.7298 155.83C74.8546 154.939 74.0645 153.968 73.3698 152.93C71.9898 151.07 70.1598 148.45 68.2598 145.47C66.3598 142.49 64.7898 139.71 63.6898 137.71C63.0413 136.636 62.4923 135.504 62.0498 134.33Z" fill="#E0E0E0"/>
<path d="M60.25 158.63C60.6451 158.605 61.0418 158.632 61.43 158.71C62.19 158.8 63.28 158.95 64.62 159.15C67.31 159.55 71.02 160.15 75.1 160.83C79.18 161.51 82.89 162.18 85.56 162.68C86.89 162.94 88.87 162.14 89.62 162.31C90.37 162.48 89.87 163.59 89.86 163.63C89.4654 163.669 89.0673 163.645 88.68 163.56C87.92 163.47 86.83 163.32 85.49 163.12C82.8 162.72 79.09 162.12 75 161.44C70.91 160.76 67.22 160.09 64.55 159.58C63.21 159.33 62.13 159.11 61.39 158.95C60.9955 158.904 60.6107 158.796 60.25 158.63Z" fill="#E0E0E0"/>
<path d="M32.71 120.49C32.9146 120.713 33.0833 120.966 33.21 121.24C33.53 121.8 33.94 122.51 34.43 123.38C35.43 125.18 36.92 127.63 38.71 130.24C40.5 132.85 42.27 135.09 43.59 136.69C44.3513 137.517 45.0499 138.399 45.68 139.33C44.7875 138.64 43.9757 137.852 43.26 136.98C39.603 132.948 36.5021 128.445 34.04 123.59C33.57 122.65 33.22 121.89 33.04 121.35C32.86 120.81 32.67 120.5 32.71 120.49Z" fill="#E0E0E0"/>
<path d="M129.58 173.57C129.58 173.57 134.28 154.57 146.13 147.57C146.13 147.57 131.56 138.44 138.8 123.47C138.8 123.47 125.43 111.69 133.31 100.71C133.31 100.71 117.69 90.14 120.5 78.63C120.5 78.63 117.31 95.63 112.43 98.63C112.43 98.63 121.08 113.25 109.53 124.87C109.53 124.87 118.23 138.23 108.59 149.29C108.59 149.27 128.16 165.1 129.58 173.57Z" fill="#F5F5F5"/>
<path d="M120.96 83.48C120.967 83.5565 120.967 83.6335 120.96 83.71C120.96 83.87 121.01 84.09 121.05 84.38C121.12 84.98 121.23 85.86 121.37 86.98C121.63 89.24 122 92.5 122.45 96.53C123.35 104.6 124.56 115.74 125.86 128.06C127.16 140.38 128.32 151.54 129.14 159.61C129.54 163.61 129.86 166.91 130.08 169.18C130.18 170.3 130.26 171.18 130.31 171.78C130.31 172.07 130.31 172.3 130.36 172.46C130.41 172.62 130.36 172.69 130.36 172.69C130.36 172.69 130.36 172.62 130.36 172.47C130.36 172.32 130.3 172.08 130.26 171.79C130.19 171.19 130.08 170.32 129.95 169.2C129.69 166.93 129.32 163.67 128.86 159.65C127.97 151.58 126.76 140.43 125.45 128.11C124.14 115.79 122.99 104.64 122.18 96.56C121.78 92.56 121.46 89.26 121.18 86.99C121.08 85.87 121.01 84.99 120.95 84.39C120.95 84.1 120.95 83.87 120.95 83.71C120.94 83.6333 120.943 83.5555 120.96 83.48Z" fill="#E0E0E0"/>
<path d="M133.92 123.71C133.652 124.565 133.318 125.397 132.92 126.2C132.24 127.72 131.3 129.82 130.3 132.15C129.3 134.48 128.46 136.63 127.85 138.15C127.554 139.002 127.196 139.83 126.78 140.63C126.961 139.743 127.219 138.873 127.55 138.03C128.09 136.46 128.9 134.29 129.89 131.95C130.88 129.61 131.89 127.52 132.64 126.03C133.001 125.222 133.429 124.446 133.92 123.71Z" fill="#E0E0E0"/>
<path d="M118.73 132.59C118.902 132.819 119.046 133.067 119.16 133.33C119.42 133.82 119.78 134.52 120.21 135.41C121.07 137.17 122.21 139.61 123.5 142.33C124.79 145.05 125.88 147.51 126.67 149.33C127.07 150.23 127.38 150.96 127.59 151.47C127.716 151.728 127.81 152 127.87 152.28C127.692 152.053 127.544 151.805 127.43 151.54C127.17 151.06 126.82 150.35 126.38 149.47C125.52 147.71 124.38 145.26 123.09 142.55C121.8 139.84 120.71 137.36 119.92 135.55C119.53 134.65 119.21 133.92 119.01 133.41C118.876 133.152 118.781 132.876 118.73 132.59Z" fill="#E0E0E0"/>
<path d="M130.14 100.61C130.14 100.61 130.08 100.84 129.9 101.22L129.13 102.81C128.47 104.16 127.62 106.04 126.8 108.17C125.98 110.3 125.37 112.27 124.96 113.71C124.778 114.5 124.538 115.276 124.24 116.03C124.29 115.218 124.427 114.413 124.65 113.63C125.092 111.721 125.659 109.844 126.35 108.01C127.056 106.18 127.878 104.396 128.81 102.67C129.18 102.01 129.49 101.49 129.72 101.13C129.95 100.77 130.12 100.59 130.14 100.61Z" fill="#E0E0E0"/>
<path d="M114.97 203.55C114.97 203.55 101.29 206.39 93.1299 200.92C93.1299 200.92 91.7399 213.1 79.8899 213.05C79.8899 213.05 76.4299 225.27 66.9499 223.58C66.9499 223.58 64.9499 236.87 56.6899 238.58C56.6899 238.58 68.6199 235.39 72.0399 237.58C72.0399 237.58 78.7799 227.52 89.8099 231.37C89.8099 231.37 95.7199 221.67 105.81 224.46C105.8 224.52 109.96 207.07 114.97 203.55Z" fill="#F5F5F5"/>
<path d="M59.7002 236.81C59.7002 236.81 59.7002 236.81 59.8302 236.71L60.2302 236.44L61.8002 235.44L67.6102 231.8C72.5202 228.71 79.3502 224.54 86.8402 219.91C94.3302 215.28 101.17 211.1 106.11 208.1L111.97 204.55L113.58 203.55L114 203.31C114.045 203.275 114.096 203.248 114.15 203.23C114.108 203.269 114.061 203.303 114.01 203.33L113.61 203.6L112.04 204.6L106.23 208.24C101.32 211.3 94.5202 215.5 87.0002 220.13C79.4802 224.76 72.6702 228.94 67.7302 231.94L61.8702 235.49L60.2702 236.44L59.8402 236.68L59.7002 236.81Z" fill="#E0E0E0"/>
<path d="M81.5801 216.1C82.2197 216.015 82.8651 215.981 83.5101 216C84.6901 216 86.3301 215.94 88.1401 215.86C89.9501 215.78 91.5801 215.66 92.7701 215.58C93.4074 215.508 94.049 215.482 94.6901 215.5C94.0674 215.66 93.4314 215.764 92.7901 215.81C91.6001 215.95 89.9701 216.09 88.1501 216.18C86.3301 216.27 84.6901 216.26 83.5101 216.23C82.8642 216.243 82.2183 216.2 81.5801 216.1Z" fill="#E0E0E0"/>
<path d="M91.96 223.14C91.96 223.14 92.07 222.94 92.3 222.63C92.53 222.32 92.88 221.87 93.3 221.32C94.17 220.22 95.38 218.72 96.74 217.07C98.1 215.42 99.34 213.95 100.25 212.88L101.34 211.64C101.465 211.476 101.613 211.331 101.78 211.21C101.682 211.39 101.568 211.56 101.44 211.72C101.2 212.03 100.86 212.48 100.44 213.03C99.58 214.13 98.36 215.63 97.01 217.27C95.66 218.91 94.41 220.4 93.5 221.46L92.4 222.71C92.2718 222.871 92.124 223.016 91.96 223.14Z" fill="#E0E0E0"/>
<path d="M67.8799 225.64C67.8799 225.64 68.0499 225.64 68.3499 225.64H69.6099C70.6799 225.64 72.1499 225.64 73.7699 225.49C75.3899 225.34 76.8499 225.14 77.8999 224.97C78.4634 224.845 79.0347 224.758 79.6099 224.71C79.0746 224.937 78.5139 225.098 77.9399 225.19C76.5745 225.485 75.1917 225.692 73.7999 225.81C72.406 225.922 71.0064 225.942 69.6099 225.87C69.0699 225.87 68.6099 225.8 68.3399 225.76C68.1811 225.745 68.0259 225.704 67.8799 225.64Z" fill="#E0E0E0"/>
<path d="M136.79 184.47C137.14 186.375 136.918 188.341 136.151 190.119C135.383 191.897 134.106 193.408 132.48 194.46C130.854 195.512 128.952 196.058 127.016 196.029C125.08 196 123.195 195.398 121.601 194.298C120.007 193.198 118.775 191.65 118.061 189.85C117.347 188.049 117.183 186.078 117.59 184.184C117.997 182.291 118.956 180.561 120.346 179.212C121.736 177.864 123.495 176.958 125.4 176.61C126.664 176.377 127.962 176.396 129.218 176.666C130.475 176.935 131.667 177.449 132.724 178.179C133.782 178.909 134.686 179.84 135.383 180.92C136.081 181.999 136.559 183.206 136.79 184.47Z" fill="#E0E0E0"/>
<path d="M108.607 194.151C112.435 193.277 114.83 189.465 113.956 185.637C113.082 181.808 109.27 179.413 105.442 180.287C101.614 181.161 99.2187 184.973 100.093 188.802C100.967 192.63 104.779 195.025 108.607 194.151Z" fill="#E0E0E0"/>
<path d="M122.307 172.109C123.809 169.949 123.275 166.981 121.115 165.479C118.955 163.977 115.986 164.511 114.485 166.671C112.983 168.832 113.517 171.8 115.677 173.302C117.837 174.803 120.806 174.269 122.307 172.109Z" fill="#E0E0E0"/>
<path d="M317.94 259.31C317.94 259.31 342.25 243.6 346.35 223.71C346.35 223.71 366.11 239.71 383.53 222.36C383.53 222.36 406.41 235.36 417.94 219.07C417.94 219.07 440.2 235.79 454.94 226.34C454.94 226.34 432.7 238.98 430.88 247.23C430.88 247.23 406.3 242.18 395.63 263.91C395.63 263.91 372.8 258.19 361.99 276.91C361.96 276.92 330.45 257.22 317.94 259.31Z" fill="#F5F5F5"/>
<path d="M447.86 228C447.747 227.989 447.633 227.989 447.52 228L446.52 228.19L442.75 229L428.89 232.08C417.2 234.71 401.05 238.39 383.23 242.49C365.41 246.59 349.23 250.34 337.6 253.09L323.79 256.38L320.05 257.3L319.05 257.56C318.936 257.583 318.825 257.62 318.72 257.67C318.833 257.686 318.947 257.686 319.06 257.67L320.06 257.47L323.83 256.67L337.69 253.59C349.38 250.96 365.53 247.28 383.36 243.18C401.19 239.08 417.31 235.32 428.98 232.57L442.79 229.29L446.53 228.36L447.53 228.1C447.75 228.05 447.86 228.02 447.86 228Z" fill="#E0E0E0"/>
<path d="M385.44 229.27C384.372 230.077 383.369 230.966 382.44 231.93C380.65 233.62 378.18 235.93 375.39 238.45C372.6 240.97 370.03 243.18 368.17 244.78C367.099 245.591 366.096 246.487 365.17 247.46C366.325 246.787 367.416 246.011 368.43 245.14C370.37 243.63 373 241.46 375.8 238.94C378.6 236.42 381.02 234.04 382.73 232.26C383.729 231.354 384.636 230.353 385.44 229.27Z" fill="#E0E0E0"/>
<path d="M380.35 254.71C379.948 254.576 379.532 254.488 379.11 254.45C378.31 254.33 377.11 254.17 375.71 253.99C372.83 253.63 368.86 253.18 364.46 252.73C360.06 252.28 356.08 251.89 353.2 251.65C351.75 251.53 349.95 250.15 349.14 250.11C348.33 250.07 348.51 251.36 348.51 251.4C348.908 251.548 349.326 251.636 349.75 251.66C350.55 251.79 351.75 251.94 353.15 252.12C356.02 252.48 360 252.93 364.39 253.39C368.78 253.85 372.77 254.22 375.66 254.46C377.1 254.58 378.27 254.67 379.08 254.71C379.502 254.768 379.929 254.768 380.35 254.71Z" fill="#E0E0E0"/>
<path d="M419.53 223.42C419.53 223.42 419.24 223.62 418.8 224.06L416.94 225.91C415.37 227.46 413.16 229.56 410.58 231.73C408 233.9 405.58 235.73 403.73 236.96C402.712 237.59 401.746 238.298 400.84 239.08C401.951 238.622 403.007 238.042 403.99 237.35C406.437 235.804 408.776 234.094 410.99 232.23C413.212 230.373 415.306 228.368 417.26 226.23C418 225.41 418.59 224.72 418.97 224.23C419.35 223.74 419.57 223.45 419.53 223.42Z" fill="#E0E0E0"/>
<path d="M304.9 250.32C304.9 250.32 305.5 229.44 295.32 218.85C295.32 218.85 312.9 213.63 309.73 196.2C309.73 196.2 326.82 187.91 321.85 174.39C321.85 174.39 340.91 167.99 341.31 155.39C341.31 155.39 339.73 173.79 343.89 178.25C343.89 178.25 330.83 190.8 339.39 206.04C339.39 206.04 326.65 217.27 333.39 231.38C333.35 231.35 308.78 242.03 304.9 250.32Z" fill="#F5F5F5"/>
<path d="M339.44 160.25C339.398 160.321 339.362 160.394 339.33 160.47C339.26 160.63 339.16 160.85 339.04 161.14L337.97 163.71C337.06 165.97 335.75 169.21 334.14 173.22C330.92 181.22 326.5 192.35 321.65 204.63C316.8 216.91 312.42 228.04 309.28 236.1C307.72 240.1 306.46 243.39 305.59 245.66C305.16 246.78 304.83 247.66 304.59 248.26L304.34 248.95C304.29 249.1 304.27 249.18 304.27 249.18C304.27 249.18 304.32 249.11 304.39 248.96C304.46 248.81 304.55 248.58 304.67 248.3L305.74 245.72L309.58 236.22C312.8 228.22 317.22 217.09 322.07 204.8C326.92 192.51 331.29 181.4 334.43 173.34L338.13 163.78C338.55 162.66 338.88 161.78 339.13 161.18C339.23 160.88 339.32 160.66 339.37 160.49C339.42 160.32 339.45 160.26 339.44 160.25Z" fill="#E0E0E0"/>
<path d="M314.66 197.89C314.705 198.848 314.825 199.801 315.02 200.74C315.29 202.5 315.66 204.92 316.02 207.6C316.38 210.28 316.63 212.72 316.82 214.49C316.874 215.449 317.004 216.402 317.21 217.34C317.282 216.381 317.265 215.416 317.16 214.46C317.06 212.69 316.84 210.24 316.49 207.54C316.14 204.84 315.71 202.43 315.36 200.69C315.211 199.738 314.977 198.8 314.66 197.89Z" fill="#E0E0E0"/>
<path d="M327.73 211.33C327.486 211.513 327.265 211.725 327.07 211.96C326.67 212.39 326.07 213.02 325.41 213.8C324.02 215.36 322.12 217.54 320.05 219.97C317.98 222.4 316.13 224.61 314.81 226.23C314.14 227.04 313.61 227.7 313.26 228.16C313.053 228.385 312.878 228.637 312.74 228.91C312.988 228.731 313.21 228.519 313.4 228.28C313.8 227.86 314.4 227.23 315.06 226.45C316.45 224.89 318.35 222.71 320.42 220.28C322.49 217.85 324.34 215.64 325.67 214.02C326.33 213.21 326.86 212.55 327.21 212.08C327.42 211.857 327.595 211.604 327.73 211.33Z" fill="#E0E0E0"/>
<path d="M325.13 175.23C325.111 175.462 325.135 175.696 325.2 175.92C325.29 176.4 325.41 177.03 325.54 177.78C325.83 179.35 326.17 181.53 326.4 183.95C326.63 186.37 326.7 188.57 326.72 190.16C326.678 191.024 326.701 191.89 326.79 192.75C326.971 191.902 327.059 191.037 327.05 190.17C327.218 185.983 326.822 181.791 325.87 177.71C325.69 176.93 325.52 176.31 325.38 175.88C325.337 175.65 325.252 175.43 325.13 175.23Z" fill="#E0E0E0"/>
<path d="M327.91 286.54C327.91 286.54 339.12 296.06 349.41 295.12C349.41 295.12 344.55 307.07 355.52 312.99C355.52 312.99 352.52 325.99 362.16 329.24C362.16 329.24 357.3 342.52 364.06 348.29C364.06 348.29 354.65 339.34 350.37 339.66C350.37 339.66 349.22 326.97 337.09 324.97C337.09 324.97 336.52 313.03 325.81 310.52C325.81 310.52 330.76 292.31 327.91 286.54Z" fill="#F5F5F5"/>
<path d="M362.19 345.12C362.19 345.12 362.19 345.06 362.12 344.96C362.05 344.86 361.99 344.7 361.88 344.51C361.66 344.11 361.35 343.51 360.94 342.79L357.41 336.5C354.41 331.2 350.26 323.89 345.65 315.83C341.04 307.77 336.85 300.47 333.8 295.2L330.18 288.97C329.74 288.24 329.41 287.67 329.18 287.28C329.06 287.1 328.97 286.95 328.91 286.85C328.85 286.75 328.81 286.7 328.81 286.71C328.81 286.72 328.81 286.76 328.88 286.87C328.95 286.98 329.01 287.12 329.12 287.32C329.34 287.71 329.65 288.32 330.06 289.03L333.59 295.32C336.59 300.62 340.74 307.93 345.35 316C349.96 324.07 354.15 331.35 357.2 336.62C358.73 339.25 359.96 341.38 360.82 342.85C361.26 343.58 361.59 344.15 361.82 344.54L362.09 344.97L362.19 345.12Z" fill="#E0E0E0"/>
<path d="M352.42 314.95C351.871 314.557 351.292 314.206 350.69 313.9C349.61 313.28 348.12 312.41 346.49 311.43C344.86 310.45 343.4 309.52 342.35 308.84C341.799 308.465 341.22 308.131 340.62 307.84C341.111 308.305 341.647 308.721 342.22 309.08C343.22 309.81 344.68 310.77 346.31 311.76C347.94 312.75 349.46 313.58 350.58 314.15C351.167 314.475 351.783 314.742 352.42 314.95Z" fill="#E0E0E0"/>
<path d="M339.29 316.22C339.297 316.005 339.277 315.79 339.23 315.58C339.17 315.18 339.08 314.58 338.96 313.86C338.71 312.41 338.35 310.41 337.96 308.21C337.57 306.01 337.14 304.01 336.83 302.57C336.68 301.85 336.55 301.27 336.45 300.87C336.415 300.66 336.355 300.455 336.27 300.26C336.249 300.475 336.266 300.691 336.32 300.9C336.38 301.31 336.47 301.9 336.6 302.62C336.84 304.07 337.21 306.07 337.6 308.27C337.99 310.47 338.43 312.47 338.73 313.91L339.11 315.61C339.141 315.821 339.202 316.026 339.29 316.22Z" fill="#E0E0E0"/>
<path d="M360.26 330.71C360.26 330.71 360.13 330.6 359.85 330.45L358.68 329.82C357.68 329.28 356.35 328.51 354.92 327.58C353.49 326.65 352.25 325.71 351.35 324.98C350.897 324.575 350.412 324.208 349.9 323.88C350.282 324.356 350.718 324.785 351.2 325.16C352.315 326.122 353.49 327.01 354.72 327.82C355.95 328.628 357.233 329.353 358.56 329.99C359.07 330.23 359.49 330.41 359.78 330.52C359.927 330.613 360.089 330.677 360.26 330.71Z" fill="#E0E0E0"/>
<path d="M349.69 280.71C349.69 280.71 356.92 282.02 361.13 279.04C361.13 279.04 362.03 285.43 368.26 285.24C368.26 285.24 370.26 291.62 375.2 290.61C375.2 290.61 376.43 297.61 380.8 298.38C380.8 298.38 374.48 296.86 372.71 298.07C372.71 298.07 369.03 292.87 363.28 295.07C363.28 295.07 360.05 290.07 354.78 291.65C354.78 291.58 352.35 282.46 349.69 280.71Z" fill="#F5F5F5"/>
<path d="M379.19 297.43L379.12 297.38L378.91 297.24L378.07 296.74L374.96 294.9L364.7 288.9C360.7 286.57 357.04 284.46 354.4 282.95L351.27 281.16L350.42 280.68L350.19 280.56H350.11L350.18 280.61L350.4 280.75L351.24 281.25L354.34 283.09L364.61 289.09C368.61 291.42 372.27 293.53 374.9 295.09L378.03 296.88L378.89 297.36L379.11 297.48L379.19 297.43Z" fill="#E0E0E0"/>
<path d="M367.41 286.83C367.077 286.8 366.742 286.8 366.41 286.83C365.78 286.83 364.92 286.83 363.97 286.83C363.02 286.83 362.15 286.77 361.53 286.75C361.197 286.72 360.862 286.72 360.53 286.75C360.858 286.826 361.193 286.873 361.53 286.89C362.16 286.94 363.02 287 363.97 287.02C364.92 287.04 365.79 287.02 366.42 287.02C366.755 286.985 367.086 286.921 367.41 286.83Z" fill="#E0E0E0"/>
<path d="M362.04 290.71C362.04 290.71 361.99 290.61 361.86 290.44L361.35 289.71C360.88 289.14 360.22 288.37 359.49 287.52C358.76 286.67 358.08 285.91 357.58 285.37C357.394 285.147 357.197 284.933 356.99 284.73C356.85 284.58 356.77 284.5 356.76 284.51C356.811 284.602 356.871 284.689 356.94 284.77L357.49 285.44C357.96 286.01 358.62 286.78 359.36 287.63C360.1 288.48 360.77 289.24 361.26 289.79L361.85 290.43C361.906 290.528 361.969 290.622 362.04 290.71Z" fill="#E0E0E0"/>
<path d="M374.74 291.71H374.49H373.83C373.27 291.71 372.49 291.71 371.64 291.71C370.79 291.71 370.02 291.57 369.46 291.49C369.164 291.427 368.863 291.39 368.56 291.38C368.844 291.49 369.139 291.567 369.44 291.61C370.164 291.744 370.895 291.831 371.63 291.87C372.366 291.922 373.104 291.922 373.84 291.87L374.5 291.8C374.584 291.783 374.665 291.753 374.74 291.71Z" fill="#E0E0E0"/>
<path d="M294.35 259.46C293.456 261.315 293.131 263.393 293.416 265.433C293.701 267.472 294.583 269.381 295.952 270.92C297.321 272.459 299.114 273.558 301.106 274.079C303.098 274.6 305.2 274.52 307.147 273.848C309.094 273.177 310.798 271.944 312.045 270.305C313.292 268.667 314.026 266.695 314.155 264.64C314.284 262.585 313.801 260.538 312.768 258.756C311.735 256.975 310.198 255.539 308.35 254.63C307.115 254.019 305.771 253.66 304.397 253.573C303.022 253.485 301.643 253.672 300.341 254.121C299.039 254.57 297.839 255.273 296.81 256.19C295.782 257.106 294.946 258.218 294.35 259.46Z" fill="#E0E0E0"/>
<path d="M326.685 281.611C330.634 280.222 332.709 275.894 331.32 271.945C329.931 267.996 325.604 265.92 321.654 267.31C317.705 268.699 315.63 273.026 317.019 276.975C318.408 280.925 322.736 283 326.685 281.611Z" fill="#E0E0E0"/>
<path d="M312.66 246.89C312.219 247.795 312.057 248.811 312.193 249.809C312.33 250.806 312.759 251.741 313.427 252.495C314.095 253.248 314.971 253.787 315.945 254.042C316.919 254.297 317.947 254.258 318.899 253.929C319.851 253.6 320.684 252.997 321.292 252.194C321.9 251.392 322.257 250.427 322.317 249.422C322.378 248.417 322.138 247.417 321.629 246.548C321.121 245.679 320.366 244.98 319.46 244.54C318.246 243.953 316.85 243.871 315.575 244.312C314.301 244.752 313.253 245.679 312.66 246.89Z" fill="#E0E0E0"/>
<path d="M369.22 96.95L372.17 82.87C372.81 83.98 373.31 84.69 373.31 84.69L377.31 90.69L374.58 104.82L380.58 113.45L383.35 99.77L386.69 104.77L384.05 118.51C380.11 112.84 372.58 101.98 369.22 96.95Z" fill="#EBEBEB"/>
<path d="M390.08 65.55C387.856 63.7563 385.518 62.1095 383.08 60.62L381.08 71.01C379.331 69.7316 377.192 69.1023 375.03 69.23L377.16 59.09C382.96 59.44 387.62 63.13 390.08 65.55Z" fill="#EBEBEB"/>
<path d="M392.84 113.97L394.54 116.52L391.92 118.36L392.84 113.97Z" fill="#EBEBEB"/>
<path d="M390.48 65.95C391.4 66.89 391.94 67.57 392 67.64C393.81 69.7 396.59 73.09 393 76.27C390.89 78.11 389.18 77.91 388.11 77.42L390.52 65.95H390.48Z" fill="#EBEBEB"/>
<path d="M365.86 62.97C366.668 62.3398 367.52 61.7683 368.41 61.26L363.35 87.64C359.41 80.5 356.29 70.39 365.86 62.97Z" fill="#EBEBEB"/>
<path d="M390.08 65.55L390.48 65.95L388.07 77.42C387.609 77.2104 387.194 76.9113 386.85 76.54C385.239 74.4 383.294 72.5328 381.09 71.01L383.09 60.62C385.524 62.1098 387.859 63.7567 390.08 65.55Z" fill="#F5F5F5"/>
<path d="M374.55 104.77L377.28 90.64L383.37 99.77L380.51 113.4L374.55 104.77Z" fill="#F5F5F5"/>
<path d="M368 95.1C367.06 93.63 365.1 90.95 363.3 87.64L368.41 61.26C371.048 59.6792 374.099 58.9235 377.17 59.09L375.04 69.23C374.145 69.3408 373.283 69.6372 372.51 70.1C367.46 73.1 370.35 79.67 372.17 82.87L369.22 96.95C368.71 96.18 368.29 95.55 368 95.1Z" fill="#F5F5F5"/>
<path d="M386.56 122.11C386.56 122.11 385.56 120.69 384.05 118.51L386.71 104.78L392.84 113.97L391.92 118.36L386.56 122.11Z" fill="#F5F5F5"/>
<path d="M198.35 384.31L180.63 391.5C181.527 391.809 182.408 392.163 183.27 392.56L192 396.35L209.84 389.44L222.53 395.21L205.35 402.16L212.69 405.35L230.01 398.64C221.66 394.82 205.68 387.52 198.35 384.31Z" fill="#EBEBEB"/>
<path d="M162.14 419C159.32 416.88 154.05 411 154.05 411L167.16 405.92C165.074 403.939 163.75 401.288 163.42 398.43L150.65 403.6C152.47 411.13 158.35 416.35 162.14 419Z" fill="#EBEBEB"/>
<path d="M226.13 411.21L229.87 412.83L231.65 408.96L226.13 411.21Z" fill="#EBEBEB"/>
<path d="M162.75 419.43C164.2 420.43 165.21 420.95 165.32 421.02C168.44 422.9 173.53 425.74 176.84 420.24C178.75 417.05 178.09 414.86 177.19 413.57L162.75 419.43Z" fill="#EBEBEB"/>
<path d="M153.06 387.92C152.424 389.126 151.876 390.376 151.42 391.66L184.72 378.76C174.47 375.36 160.51 373.71 153.06 387.92Z" fill="#EBEBEB"/>
<path d="M162.14 419L162.75 419.43L177.19 413.57C176.81 413.019 176.324 412.55 175.76 412.19C172.58 410.581 169.676 408.474 167.16 405.95L154.05 411.03C154.05 411.03 159.35 416.88 162.14 419Z" fill="#F5F5F5"/>
<path d="M209.79 389.44L191.95 396.35L205.33 402.16L222.48 395.21L209.79 389.44Z" fill="#F5F5F5"/>
<path d="M195.59 383.15C193.45 382.28 189.48 380.34 184.72 378.76L151.42 391.71C149.968 395.543 149.7 399.723 150.65 403.71L163.42 398.54C163.346 397.342 163.526 396.143 163.95 395.02C166.65 387.71 175.95 389.94 180.58 391.58L198.35 384.31C197.18 383.82 196.26 383.43 195.59 383.15Z" fill="#F5F5F5"/>
<path d="M235.35 401.08L230.04 398.64L212.72 405.35L226.18 411.2L231.7 408.96L235.35 401.08Z" fill="#F5F5F5"/>
</svg>
