<svg width="107" height="159" viewBox="0 0 107 159" fill="none" xmlns="http://www.w3.org/2000/svg">
<g filter="url(#filter0_d_2809_14017)">
<path d="M24.9568 28.5038L12.7755 70.9462C11.7666 74.4621 11.7466 78.2624 12.7185 81.7925C13.6903 85.3225 15.6032 88.3975 18.1777 90.5685L55.5166 122.059C57.4537 123.679 59.6469 124.833 61.9692 125.456C64.2914 126.079 66.6965 126.157 69.0448 125.686C71.3931 125.215 73.638 124.204 75.6492 122.712C77.6604 121.221 79.3979 119.278 80.7609 116.996C83.1937 112.926 84.3142 107.982 83.924 103.04C83.5338 98.0981 81.658 93.4767 78.6289 89.9947L59.0506 67.4825L65.6635 36.043L24.9568 28.5038Z" fill="#C53F3F"/>
<g opacity="0.5">
<path d="M16.4575 56.6778C16.4576 56.693 16.4549 56.7079 16.4498 56.7218C16.4446 56.7357 16.437 56.7482 16.4275 56.7585C16.418 56.7688 16.4068 56.7767 16.3945 56.7817C16.3823 56.7867 16.3693 56.7887 16.3564 56.7875C16.3437 56.7881 16.3311 56.7857 16.3193 56.7804C16.3075 56.7751 16.2967 56.7672 16.2876 56.7569C16.2785 56.7467 16.2712 56.7344 16.2663 56.7208C16.2613 56.7072 16.2588 56.6926 16.2588 56.6778C16.2632 56.6508 16.2756 56.6265 16.2937 56.609C16.3118 56.5915 16.3346 56.5819 16.3582 56.5819C16.3817 56.5819 16.4045 56.5915 16.4226 56.609C16.4408 56.6265 16.4531 56.6508 16.4575 56.6778Z" fill="white"/>
<path d="M47.3717 32.8198C47.3504 32.8449 47.326 32.8662 47.2994 32.883L47.0682 33.0518L46.1792 33.6804L42.9017 35.9882C40.141 37.9415 36.3467 40.6838 32.2309 43.848C28.1151 47.0122 24.4545 49.995 21.8239 52.1847L18.7162 54.7835L17.867 55.4881L17.643 55.6695L17.5635 55.7243C17.5836 55.6958 17.6067 55.6703 17.6321 55.6484L17.8453 55.4543L18.6728 54.716C19.3955 54.079 20.4399 53.1677 21.748 52.0581C24.357 49.8347 28.0066 46.8308 32.1261 43.6624C36.2456 40.494 40.0542 37.7559 42.8367 35.8532C44.2243 34.8912 45.3662 34.1276 46.1431 33.6087L47.0501 33.0138L47.2886 32.8619C47.3428 32.8282 47.3717 32.8155 47.3717 32.8198Z" fill="white"/>
<path d="M64.417 36.7729C64.4423 36.8235 53.9775 44.4851 41.041 53.8848C28.1044 63.2846 17.5926 70.8618 17.5528 70.8112C17.5131 70.7606 27.9924 63.099 40.9325 53.6992C53.8727 44.2994 64.3881 36.7264 64.417 36.7729Z" fill="white"/>
<path d="M60.3805 57.8212C60.3805 57.8212 60.3552 57.8507 60.301 57.8971L60.0517 58.0996L59.0905 58.8675L55.5275 61.6646C52.5138 63.9977 48.3365 67.2041 43.6534 70.6172C38.9702 74.0303 34.6628 77.0004 31.5407 79.1394L27.8368 81.6708L26.825 82.3416L26.5612 82.5104C26.5322 82.5324 26.5005 82.5495 26.4673 82.561C26.4928 82.535 26.5206 82.5123 26.5504 82.4935L26.807 82.3036L27.8007 81.5948L31.4757 79.0213C34.5761 76.8486 38.869 73.8573 43.5522 70.4484C48.2353 67.0395 52.4198 63.85 55.4552 61.5507L59.0507 58.8295L60.0336 58.0996L60.2974 57.8676C60.3235 57.8486 60.3514 57.833 60.3805 57.8212Z" fill="white"/>
<path d="M18.6692 70.7311C17.9957 69.5745 17.3745 68.3774 16.8082 67.145C16.1886 65.9476 15.6217 64.7141 15.1099 63.4492C15.7843 64.6051 16.4056 65.8022 16.9708 67.0353C17.5905 68.2327 18.1573 69.4662 18.6692 70.7311Z" fill="white"/>
<path d="M53.146 119.354C53.146 119.354 53.1099 119.291 53.0484 119.16L52.781 118.591L51.7729 116.393C50.8948 114.481 49.6445 111.705 48.1087 108.267C45.0372 101.39 40.8635 91.851 36.3863 81.2362C31.9092 70.6214 27.9812 60.9389 25.1843 53.9059C23.7895 50.3873 22.6548 47.5354 21.9032 45.5609L21.0251 43.2827C20.9312 43.0295 20.8553 42.8312 20.8047 42.6878C20.7541 42.5444 20.7324 42.4853 20.7324 42.4853C20.7324 42.4853 20.7649 42.5486 20.8191 42.6794L21.0613 43.2658L21.9719 45.5271C22.7596 47.4974 23.9015 50.3367 25.3072 53.8384C28.1366 60.8545 32.0826 70.5243 36.5562 81.1392C41.0298 91.754 45.189 101.301 48.228 108.195L51.8415 116.35L52.8244 118.574L53.0737 119.152C53.1207 119.283 53.146 119.354 53.146 119.354Z" fill="white"/>
<path d="M65.2119 109.208C65.1753 109.142 65.1415 109.075 65.1107 109.005L64.8325 108.415C64.5904 107.879 64.2363 107.107 63.781 106.119C62.8776 104.111 61.5731 101.221 59.9614 97.6521C56.7454 90.4799 52.3332 80.5907 47.5127 69.6173C42.6922 58.6438 38.3849 48.6745 35.3061 41.4348C33.774 37.815 32.5345 34.8828 31.6926 32.8451C31.277 31.8325 30.9699 31.0436 30.7241 30.4993L30.4784 29.8876C30.4242 29.7484 30.3989 29.6766 30.3989 29.6766C30.3989 29.6766 30.4351 29.7441 30.4965 29.8791C30.5579 30.0142 30.6483 30.2209 30.7603 30.4825L31.7504 32.8071C32.6213 34.8364 33.8716 37.7601 35.4145 41.3673C38.5222 48.5901 42.844 58.5468 47.6681 69.5202C52.4922 80.4937 56.8899 90.3913 60.0662 97.5804L63.8352 106.077C64.276 107.077 64.6193 107.853 64.8542 108.393C64.9662 108.651 65.0529 108.853 65.118 108.997C65.183 109.14 65.2119 109.208 65.2119 109.208Z" fill="white"/>
<path d="M72.7208 97.2133C72.6883 97.1617 72.6582 97.1082 72.6305 97.053L72.3847 96.5805L71.4561 94.7452L68.0629 87.9949C66.6175 85.1387 64.9264 81.7425 63.0618 77.9496C61.1972 74.1568 59.1627 69.9759 57.1428 65.508C53.0956 56.5807 49.9482 48.2104 47.7837 42.0845C46.6996 39.0216 45.8576 36.5366 45.2903 34.8111L44.6362 32.8239L44.47 32.305C44.4491 32.2462 44.4322 32.1855 44.4194 32.1236C44.4462 32.1791 44.4691 32.2369 44.4881 32.2966L44.6724 32.8071L45.359 34.7773C45.9444 36.4944 46.8225 38.9709 47.9065 42.0254C50.1036 48.1176 53.2654 56.4837 57.3018 65.4068C59.3217 69.8662 61.3489 74.0513 63.2027 77.8484L68.1713 87.919L71.5139 94.7115L72.41 96.5678C72.5076 96.7703 72.5835 96.9348 72.6413 97.0488C72.6719 97.1007 72.6985 97.1558 72.7208 97.2133Z" fill="white"/>
<path d="M63.116 72.3722C63.1485 72.4228 55.8311 78.8736 46.7755 86.7841C37.7199 94.6946 30.3519 101.074 30.3049 101.023C30.2579 100.972 37.5898 94.5216 46.649 86.6111C55.7082 78.7006 63.0871 72.3258 63.116 72.3722Z" fill="white"/>
<path d="M71.6079 81.5146C71.6441 81.5568 65.8263 88.6193 58.5991 97.2892C51.372 105.959 45.4892 112.95 45.4494 112.899C45.4097 112.849 51.2311 105.795 58.4582 97.1247C65.6853 88.4548 71.5682 81.4935 71.6079 81.5146Z" fill="white"/>
<path d="M78.6289 90.0116C78.6289 90.0116 78.6289 90.0453 78.5783 90.1044L78.4157 90.3617L77.7724 91.3363C77.2159 92.1801 76.3921 93.3909 75.3694 94.876C73.3169 97.8293 70.4225 101.901 67.1341 106.267C63.8458 110.634 60.7815 114.528 58.5447 117.312C57.4281 118.705 56.5175 119.823 55.8815 120.59C55.5744 120.966 55.3287 121.257 55.1588 121.472L54.9673 121.7L54.895 121.772C54.895 121.772 54.9131 121.738 54.9528 121.683L55.1335 121.443L55.8562 120.531L58.4724 117.207C60.6839 114.397 63.7266 110.499 67.0149 106.124C70.3032 101.749 73.2121 97.7153 75.2899 94.7705L77.7435 91.273L78.412 90.3238L78.5891 90.0833C78.6036 90.0369 78.6252 90.0074 78.6289 90.0116Z" fill="white"/>
<path d="M63.4482 46.9616C63.4012 46.9869 62.2088 44.2615 60.7814 40.8737C59.354 37.4859 58.2519 34.714 58.2808 34.6887C58.3097 34.6634 59.5239 37.3888 60.9512 40.7766C62.3786 44.1644 63.4952 46.9321 63.4482 46.9616Z" fill="white"/>
<path d="M30.771 100.951C30.669 100.844 30.5781 100.724 30.5 100.593C30.3338 100.356 30.0989 100.002 29.8207 99.559C29.2569 98.673 28.5126 97.4242 27.7465 95.9982C26.9804 94.5722 26.3444 93.2433 25.9072 92.2687C25.6868 91.7835 25.5169 91.3827 25.4049 91.1043C25.339 90.9713 25.2869 90.8297 25.2495 90.6824C25.3388 90.8109 25.4129 90.9528 25.4699 91.1043L26.0228 92.2349C26.489 93.1884 27.1466 94.5005 27.9091 95.9181C28.6715 97.3356 29.3943 98.6013 29.9291 99.5084C30.1748 99.9303 30.3844 100.289 30.5578 100.58C30.6405 100.694 30.712 100.819 30.771 100.951Z" fill="white"/>
</g>
<path opacity="0.3" d="M18.1777 90.5854C15.6002 88.4133 13.6854 85.3355 12.7134 81.8019C11.7414 78.2684 11.7632 74.4644 12.7755 70.9463C12.7755 70.9463 20.0026 68.3854 24.5376 76.4984C29.6977 85.78 23.3776 94.9562 23.3776 94.9562L18.1777 90.5854Z" fill="black"/>
<path opacity="0.3" d="M78.6287 90.0074L55.502 122.071C57.4392 123.691 59.6325 124.845 61.9546 125.467C64.2768 126.09 66.6817 126.168 69.0299 125.697C71.3781 125.226 73.6228 124.215 75.634 122.724C77.6453 121.232 79.3829 119.29 80.7462 117.009C83.1809 112.941 84.3038 107.998 83.9162 103.056C83.5287 98.1139 81.6556 93.4915 78.6287 90.0074Z" fill="black"/>
<path d="M25.918 31.2166C25.9195 30.7814 25.9957 30.3511 26.142 29.9509C26.2191 29.5326 26.3625 29.1348 26.5648 28.778C26.4836 29.6247 26.264 30.4454 25.918 31.1955V31.2166Z" fill="white"/>
<path d="M23.2944 40.9918C23.4134 40.1465 23.5997 39.316 23.8509 38.5111C24.0373 37.6836 24.2902 36.8784 24.6062 36.1063C24.4874 36.9503 24.3011 37.7795 24.0497 38.5828C23.8629 39.4116 23.61 40.2181 23.2944 40.9918Z" fill="white"/>
<path d="M20.6748 50.746C20.794 49.9021 20.9803 49.073 21.2313 48.2695C21.5926 46.9194 21.9287 45.8436 21.9865 45.8647C21.8673 46.7086 21.681 47.5377 21.43 48.3412C21.2425 49.1683 20.9897 49.9734 20.6748 50.746Z" fill="white"/>
<path d="M18.0547 60.5128C18.1713 59.6683 18.3577 58.8389 18.6112 58.0363C18.7966 57.209 19.0482 56.4038 19.3628 55.6315C19.2431 56.4753 19.0569 57.3044 18.8063 58.108C18.6201 58.9351 18.3685 59.7401 18.0547 60.5128Z" fill="white"/>
<path d="M15.4316 70.2797C15.5506 69.4344 15.7369 68.6038 15.9881 67.799C16.1745 66.9714 16.4274 66.1662 16.7434 65.3942C16.4387 67.0672 15.9996 68.703 15.4316 70.2797Z" fill="white"/>
<path d="M14.7882 80.3291C14.3048 78.7036 14.1866 76.9605 14.4449 75.2664C14.5064 75.2664 14.4449 76.414 14.5461 77.7978C14.6473 79.1816 14.8497 80.3123 14.7882 80.3291Z" fill="white"/>
<path d="M19.3699 88.8514C18.7416 88.4022 18.1832 87.8315 17.7186 87.1638C17.2076 86.548 16.7909 85.8345 16.4863 85.0544C16.5405 85.0122 17.079 85.9699 17.8739 87.0204C18.6689 88.0709 19.4097 88.7924 19.3699 88.8514Z" fill="white"/>
<path d="M26.4598 94.8676C25.8117 94.469 25.1971 94.0001 24.6242 93.4669C24.0102 92.9997 23.4355 92.4658 22.9077 91.8722C23.5559 92.2708 24.1705 92.7398 24.7434 93.2729C25.3573 93.7401 25.932 94.2741 26.4598 94.8676Z" fill="white"/>
<path d="M33.557 100.858C32.9088 100.46 32.2942 99.9909 31.7213 99.4578C31.1074 98.9906 30.5327 98.4566 30.0049 97.863C30.654 98.2621 31.2697 98.7311 31.8442 99.2637C32.4574 99.7302 33.031 100.264 33.557 100.858Z" fill="white"/>
<path d="M40.6722 106.849C40.0222 106.454 39.4062 105.986 38.8329 105.453C38.2191 104.986 37.6455 104.45 37.1201 103.854C37.7668 104.256 38.3812 104.724 38.9558 105.255C39.5679 105.725 40.1424 106.258 40.6722 106.849Z" fill="white"/>
<path d="M47.7762 112.844C47.1281 112.446 46.5135 111.977 45.9406 111.444C45.3276 110.975 44.753 110.441 44.2241 109.849C44.8727 110.245 45.4874 110.713 46.0598 111.245C46.6734 111.715 47.248 112.25 47.7762 112.844Z" fill="white"/>
<path d="M54.8952 118.814C54.8627 118.878 54.0207 118.27 53.0451 117.435C52.4319 116.966 51.8573 116.432 51.3286 115.84C51.9783 116.238 52.5941 116.707 53.1679 117.241C53.7756 117.716 54.3528 118.242 54.8952 118.814Z" fill="white"/>
<path d="M63.0581 122.308C61.5863 122.238 60.1414 121.825 58.8086 121.092C58.8303 121.025 59.759 121.384 60.9297 121.717C62.1005 122.05 63.0654 122.236 63.0581 122.308Z" fill="white"/>
<path d="M71.705 121.329C71.0509 121.727 70.3473 122.003 69.62 122.147C68.906 122.366 68.1675 122.456 67.4302 122.413C67.4302 122.346 68.3986 122.211 69.5766 121.911C70.7546 121.611 71.6833 121.261 71.705 121.329Z" fill="white"/>
<path d="M78.6145 115.3C77.8807 116.799 76.8308 118.053 75.5647 118.945C75.5286 118.886 76.3055 118.186 77.1402 117.182C77.9749 116.177 78.5639 115.245 78.6145 115.3Z" fill="white"/>
<path d="M81.1984 105.685C81.344 107.409 81.1205 109.149 80.548 110.748C80.4902 110.727 80.7612 109.625 80.9346 108.216C81.1081 106.807 81.137 105.685 81.1984 105.685Z" fill="white"/>
<path d="M78.8998 95.9265C79.3477 96.6087 79.7058 97.3652 79.9622 98.171C80.2788 98.948 80.4897 99.7778 80.5873 100.631C80.5295 100.652 80.226 99.559 79.7707 98.268C79.3154 96.977 78.8456 95.9603 78.8998 95.9265Z" fill="white"/>
<path d="M73.2412 88.1595C73.8278 88.6716 74.3711 89.248 74.8637 89.8808C75.4097 90.4553 75.9004 91.0976 76.3272 91.7962C75.7527 91.2658 75.215 90.6831 74.7192 90.0538C74.1774 89.477 73.6827 88.8429 73.2412 88.1595Z" fill="white"/>
<path d="M67.0474 80.9198C68.175 82.0099 69.2119 83.2219 70.1442 84.5396C69.5595 84.025 69.0164 83.4488 68.5218 82.8183C67.6654 81.8184 67.0041 80.9704 67.0474 80.9198Z" fill="white"/>
<path d="M60.8501 73.6843C61.4354 74.1998 61.9786 74.7774 62.4726 75.4099C63.0146 75.985 63.5083 76.6193 63.9469 77.3042C63.3616 76.7887 62.8184 76.2111 62.3244 75.5786C61.782 75.0039 61.2883 74.3696 60.8501 73.6843Z" fill="white"/>
<path d="M56.7563 65.8203C56.6745 66.6615 56.5257 67.492 56.3118 68.301C56.2576 68.0689 56.3118 68.2335 56.2865 68.1829L56.3082 68.2039L56.348 68.2503L56.4239 68.3432L56.5756 68.5204C56.6732 68.6385 56.7671 68.7482 56.8575 68.8621L57.3309 69.4485C57.4886 69.6188 57.6227 69.8166 57.7284 70.035C57.5413 69.9116 57.3719 69.7551 57.2261 69.5709L56.7238 69.0182L56.4311 68.6891L56.2793 68.5119L56.1998 68.4191L56.1601 68.3769L56.142 68.3516C56.142 68.301 56.1709 68.4655 56.1167 68.2335C56.2642 67.4073 56.4784 66.5993 56.7563 65.8203Z" fill="white"/>
<path d="M59.2131 54.7286C59.1073 55.6788 58.9344 56.6172 58.6963 57.5342C58.5233 58.4708 58.2815 59.3883 57.9736 60.2765C58.0794 59.3263 58.2523 58.3879 58.4904 57.4709C58.6642 56.5345 58.9059 55.6171 59.2131 54.7286Z" fill="white"/>
<path d="M61.6743 43.6413C61.573 44.592 61.4013 45.5307 61.1612 46.4469C60.9865 47.3816 60.7447 48.2976 60.4385 49.185C60.5445 48.2362 60.7173 47.2992 60.9552 46.3836C61.1282 45.4474 61.3687 44.5301 61.6743 43.6413Z" fill="white"/>
<path d="M63.4485 35.6506C63.4617 36.0813 63.404 36.5109 63.2787 36.9163C63.2223 37.3369 63.0998 37.7417 62.9174 38.1103C62.9042 37.6796 62.9619 37.25 63.0872 36.8446C63.1436 36.424 63.2661 36.0192 63.4485 35.6506Z" fill="white"/>
<path opacity="0.3" d="M22.9873 35.3638C22.9873 35.3638 64.2469 42.7891 64.3119 42.4853L64.6733 40.8231L24.6495 27.8119L22.9873 35.3638Z" fill="black"/>
<path d="M32.6719 55.9691C32.5792 54.5655 32.5478 53.1574 32.578 51.7501C32.548 50.3429 32.5794 48.9347 32.6719 47.5312C32.7644 48.9347 32.7958 50.3429 32.7659 51.7501C32.796 53.1574 32.7646 54.5655 32.6719 55.9691Z" fill="white"/>
<path d="M35.0205 51.1932C34.1737 51.3043 33.3209 51.3409 32.4693 51.3029C31.6166 51.3408 30.7626 51.3042 29.9146 51.1932C30.7628 51.0848 31.6166 51.0481 32.4693 51.0835C33.3209 51.048 34.1735 51.0846 35.0205 51.1932Z" fill="white"/>
<path d="M34.7568 53.9102C34.0544 53.1377 33.3965 52.3118 32.7874 51.4379C32.1307 50.6125 31.52 49.7387 30.959 48.8221C31.6615 49.5946 32.3194 50.4205 32.9284 51.2944C33.5864 52.1186 34.1972 52.9923 34.7568 53.9102Z" fill="white"/>
<path d="M34.4027 48.7504C33.9208 49.6372 33.3859 50.483 32.8019 51.2818C32.2682 52.1291 31.6825 52.93 31.0493 53.6781C31.5337 52.7924 32.0698 51.9466 32.6537 51.1468C33.1882 50.3014 33.7726 49.5006 34.4027 48.7504Z" fill="white"/>
<path d="M43.758 84.1304C43.6608 82.7272 43.6282 81.3188 43.6605 79.9115C43.6282 78.5042 43.6608 77.0958 43.758 75.6926C43.8507 77.0961 43.8821 78.5042 43.852 79.9115C43.8821 81.3188 43.8507 82.7269 43.758 84.1304Z" fill="white"/>
<path d="M46.1069 79.3588C45.2587 79.4672 44.4049 79.5038 43.5521 79.4685C42.7006 79.504 41.848 79.4673 41.001 79.3588C41.8478 79.2477 42.7006 79.211 43.5521 79.2491C44.4049 79.2111 45.2589 79.2478 46.1069 79.3588Z" fill="white"/>
<path d="M45.8433 82.0716C45.1408 81.2991 44.4829 80.4732 43.8739 79.5993C43.2159 78.7752 42.6051 77.9013 42.0454 76.9835C42.7457 77.7585 43.4035 78.5842 44.0148 79.4558C44.6715 80.2813 45.2822 81.155 45.8433 82.0716Z" fill="white"/>
<path d="M45.4818 76.9118C44.9989 77.7988 44.4627 78.6447 43.8774 79.4432C43.343 80.2886 42.7585 81.0893 42.1284 81.8395C42.6114 80.9526 43.1475 80.1067 43.7328 79.3082C44.2673 78.4627 44.8517 77.662 45.4818 76.9118Z" fill="white"/>
<path d="M58.8809 111.532C58.0324 110.527 57.2303 109.469 56.4779 108.364C55.675 107.307 54.92 106.201 54.2158 105.052C55.0639 106.06 55.8671 107.117 56.6224 108.221C57.4225 109.279 58.1763 110.385 58.8809 111.532Z" fill="white"/>
<path d="M58.0495 106.115C57.461 106.835 56.8282 107.503 56.156 108.115C55.5241 108.783 54.8501 109.396 54.1396 109.946C54.7299 109.227 55.364 108.559 56.0368 107.946C56.6679 107.279 57.3406 106.666 58.0495 106.115Z" fill="white"/>
<path d="M59.3434 108.389C58.3799 108.325 57.4213 108.184 56.4742 107.967C55.5157 107.83 54.5657 107.62 53.6304 107.339C54.5947 107.408 55.5542 107.549 56.5032 107.761C57.4606 107.898 58.4093 108.108 59.3434 108.389Z" fill="white"/>
<path d="M56.2287 104.698C56.3504 105.738 56.4072 106.787 56.3985 107.837C56.4551 108.886 56.4478 109.94 56.3769 110.988C56.2598 109.946 56.2043 108.896 56.2106 107.845C56.1561 106.797 56.1622 105.745 56.2287 104.698Z" fill="white"/>
<path d="M41.9839 105.508C41.1365 104.498 40.3333 103.439 39.5773 102.335C38.7762 101.277 38.0224 100.172 37.3188 99.0232C38.1667 100.031 38.9688 101.09 39.7219 102.196C40.5258 103.252 41.2809 104.358 41.9839 105.508Z" fill="white"/>
<path d="M41.1457 100.086C40.5562 100.805 39.9234 101.473 39.2522 102.086C38.6189 102.754 37.945 103.367 37.2358 103.921C37.8237 103.2 38.4566 102.53 39.1293 101.917C39.7612 101.249 40.4353 100.637 41.1457 100.086Z" fill="white"/>
<path d="M42.4464 102.365C41.4821 102.295 40.5226 102.154 39.5737 101.943C38.6164 101.802 37.6677 101.591 36.7334 101.31C37.7037 101.378 38.6693 101.519 39.6242 101.732C40.5754 101.873 41.518 102.085 42.4464 102.365Z" fill="white"/>
<path d="M39.3385 98.6773C39.4558 99.7193 39.5113 100.769 39.5048 101.82C39.5614 102.869 39.5554 103.92 39.4867 104.968C39.3671 103.926 39.3103 102.876 39.3168 101.825C39.2623 100.776 39.2696 99.7246 39.3385 98.6773Z" fill="white"/>
<path d="M62.7979 86.5309C61.9494 85.5252 61.1473 84.4676 60.3949 83.3625C59.592 82.3053 58.8369 81.1998 58.1328 80.0507C58.9809 81.0581 59.7841 82.1156 60.5394 83.2191C61.3396 84.2779 62.0933 85.3833 62.7979 86.5309Z" fill="white"/>
<path d="M61.967 81.1139C61.3785 81.8336 60.7457 82.502 60.0735 83.1137C59.4416 83.7821 58.7676 84.3941 58.0571 84.9447C58.6467 84.2262 59.2794 83.5579 59.9506 82.9449C60.5834 82.2776 61.2573 81.6656 61.967 81.1139Z" fill="white"/>
<path d="M63.2604 83.3879C62.2969 83.3237 61.3383 83.1828 60.3912 82.966C59.4327 82.8282 58.4827 82.6182 57.5474 82.3374C58.5117 82.4065 59.4712 82.5474 60.4201 82.7593C61.3775 82.8974 62.3262 83.1073 63.2604 83.3879Z" fill="white"/>
<path d="M60.1454 79.7047C60.2649 80.7451 60.3217 81.7939 60.3152 82.8436C60.3717 83.8934 60.3645 84.9465 60.2935 85.9951C60.1765 84.9531 60.1209 83.9029 60.1273 82.852C60.0706 81.8037 60.0766 80.7521 60.1454 79.7047Z" fill="white"/>
<path d="M51.1695 60.8208C50.3227 59.8118 49.5206 58.7529 48.7665 57.6482C47.9636 56.5909 47.2085 55.4855 46.5044 54.3363C47.3523 55.3441 48.1544 56.4031 48.9074 57.5089C49.7113 58.5652 50.4664 59.6707 51.1695 60.8208Z" fill="white"/>
<path d="M50.3386 55.4121C49.7491 56.1306 49.1163 56.7989 48.4451 57.4119C47.8118 58.0797 47.1379 58.693 46.4287 59.2471C47.0165 58.5253 47.6494 57.8555 48.3222 57.2431C48.9541 56.5747 49.6281 55.9626 50.3386 55.4121Z" fill="white"/>
<path d="M51.6247 57.6904C50.6604 57.621 49.7008 57.4801 48.7519 57.2685C47.7946 57.1279 46.846 56.9165 45.9116 56.6356C46.8759 56.7049 47.8354 56.8459 48.7844 57.0575C49.742 57.1957 50.6908 57.4071 51.6247 57.6904Z" fill="white"/>
<path d="M48.5172 54.003C48.6345 55.045 48.69 56.0952 48.6835 57.1461C48.7402 58.1944 48.7341 59.2461 48.6654 60.2934C48.5458 59.2517 48.489 58.2014 48.4956 57.1503C48.4411 56.1019 48.4483 55.0503 48.5172 54.003Z" fill="white"/>
<path d="M29.2208 42.2575C28.3729 41.2497 27.5708 40.1907 26.8178 39.0849C26.0138 38.0286 25.2587 36.9231 24.5557 35.773C25.4031 36.7826 26.2064 37.8414 26.9623 38.9456C27.7634 40.0035 28.5172 41.1089 29.2208 42.2575Z" fill="white"/>
<path d="M28.3933 36.8151C27.8048 37.5348 27.172 38.2032 26.4998 38.8148C25.8665 39.4826 25.1926 40.096 24.4834 40.6501C25.0719 39.9304 25.7047 39.262 26.3769 38.6503C27.0102 37.9825 27.6841 37.3692 28.3933 36.8151Z" fill="white"/>
<path d="M29.6867 39.0933C28.7236 39.0241 27.7652 38.8832 26.8175 38.6714C25.8584 38.5359 24.9082 38.3245 23.9736 38.0386C24.944 38.107 25.9096 38.2479 26.8645 38.4605C27.8157 38.6019 28.7583 38.8133 29.6867 39.0933Z" fill="white"/>
<path d="M26.572 35.4059C26.6893 36.448 26.746 37.4981 26.7418 38.5491C26.7963 39.5975 26.7891 40.6491 26.7202 41.6964C26.6029 40.6544 26.5474 39.6042 26.5539 38.5533C26.4974 37.5049 26.5034 36.4533 26.572 35.4059Z" fill="white"/>
<path d="M54.1544 42.1478C53.3065 41.14 52.5044 40.081 51.7513 38.9752C50.9474 37.919 50.1923 36.8134 49.4893 35.6633C50.3367 36.6729 51.14 37.7318 51.8959 38.836C52.697 39.8938 53.4508 40.9993 54.1544 42.1478Z" fill="white"/>
<path d="M53.3161 36.7265C52.7276 37.4462 52.0948 38.1146 51.4226 38.7263C50.7901 39.3952 50.1162 40.0086 49.4062 40.5615C49.9965 39.8424 50.6306 39.1741 51.3034 38.5617C51.935 37.8935 52.6078 37.2801 53.3161 36.7265Z" fill="white"/>
<path d="M54.6098 39.0047C53.6467 38.9354 52.6884 38.7945 51.7406 38.5828C50.7826 38.4482 49.8336 38.2367 48.9004 37.95C49.8635 38.0194 50.8218 38.1604 51.7695 38.3718C52.727 38.5114 53.6757 38.7228 54.6098 39.0047Z" fill="white"/>
<path d="M51.4947 35.3174C51.6163 36.3589 51.673 37.4094 51.6645 38.4605C51.7212 39.5089 51.714 40.5606 51.6429 41.6078C51.5256 40.5658 51.4701 39.5156 51.4766 38.4647C51.4223 37.4163 51.4283 36.3648 51.4947 35.3174Z" fill="white"/>
<path d="M29.6041 76.1566C28.7555 75.1482 27.9522 74.0893 27.1974 72.984C26.3953 71.9271 25.6414 70.8216 24.939 69.6721C25.7858 70.6811 26.5878 71.7401 27.342 72.8448C28.1449 73.902 28.8999 75.0074 29.6041 76.1566Z" fill="white"/>
<path d="M28.769 70.7353C28.1816 71.4563 27.5487 72.1247 26.8755 72.7351C26.2439 73.4033 25.5712 74.0167 24.8628 74.5703C25.4496 73.8473 26.0825 73.1773 26.7563 72.5663C27.3885 71.9001 28.0612 71.2882 28.769 70.7353Z" fill="white"/>
<path d="M30.0665 73.0135C29.0962 72.9453 28.1306 72.8044 27.1757 72.5916C26.2181 72.4535 25.2693 72.2421 24.3354 71.9588C25.2985 72.028 26.2569 72.169 27.2046 72.3807C28.1692 72.5202 29.1251 72.7315 30.0665 73.0135Z" fill="white"/>
<path d="M26.9514 69.3262C27.0685 70.3682 27.124 71.4184 27.1176 72.4693C27.1743 73.5176 27.1683 74.5693 27.0996 75.6166C26.9778 74.5751 26.921 73.5246 26.9297 72.4735C26.8731 71.4251 26.8804 70.3734 26.9514 69.3262Z" fill="white"/>
<path d="M62.6243 41.0214L26.4599 30.3053C25.3342 29.9718 24.2758 29.3828 23.3452 28.5718C22.4145 27.7607 21.6298 26.7436 21.0359 25.5785C20.442 24.4133 20.0504 23.123 19.8837 21.7812C19.7169 20.4394 19.7781 19.0723 20.0639 17.7582C20.3495 16.4439 20.854 15.2082 21.5487 14.1217C22.2433 13.0351 23.1145 12.119 24.1124 11.4255C25.1104 10.7321 26.2156 10.2749 27.3648 10.0802C28.5141 9.8855 29.685 9.957 30.8106 10.2906L66.9751 21.0025C68.101 21.3355 69.1598 21.9242 70.0909 22.7351C71.0219 23.5459 71.807 24.5629 72.4013 25.7281C72.9956 26.8933 73.3875 28.1838 73.5545 29.5258C73.7215 30.8679 73.6604 32.2352 73.3747 33.5496C73.0891 34.8644 72.5844 36.1006 71.8896 37.1877C71.1948 38.2748 70.3233 39.1914 69.325 39.8852C68.3268 40.579 67.2212 41.0365 66.0715 41.2314C64.9218 41.4264 63.7504 41.355 62.6243 41.0214Z" fill="#FAFAFA"/>
<path d="M62.6246 41.0214C62.6246 41.0214 62.7403 41.0213 62.9571 41.0846C63.2773 41.1675 63.6021 41.2239 63.9291 41.2534C65.1885 41.395 66.4592 41.218 67.6547 40.7345C68.5119 40.3777 69.3201 39.8775 70.0541 39.2494C70.9881 38.4357 71.7739 37.4131 72.3658 36.2411C72.9577 35.0691 73.3437 33.7712 73.5014 32.4232C73.7955 29.9207 73.2801 27.3801 72.056 25.2974C71.8403 24.9222 71.6049 24.5629 71.3514 24.2216C71.2213 24.0528 71.0767 23.8967 70.9394 23.7279L70.7335 23.4832L70.5058 23.2596C69.89 22.6369 69.2013 22.1198 68.4605 21.724L67.886 21.4413C67.6945 21.3485 67.4885 21.2936 67.2897 21.2135C66.8886 21.0574 66.4658 20.9561 66.0467 20.8253L55.3289 17.6611L30.7567 10.3961C28.7097 9.79037 26.5442 10.0691 24.6595 11.181C22.7747 12.2928 21.2978 14.1628 20.5011 16.446C19.7044 18.7293 19.6417 21.2719 20.3244 23.6049C21.0072 25.9379 22.3894 27.9041 24.2162 29.1408C24.4294 29.2716 24.6353 29.4193 24.8521 29.5374L25.5098 29.8623C25.9615 30.0395 26.4096 30.2082 26.8721 30.339L29.5931 31.1448L34.793 32.6932L44.1268 35.4692L57.6415 39.511L61.3129 40.6205L62.2669 40.9117C62.4801 40.9792 62.5885 41.0214 62.5885 41.0214C62.5885 41.0214 62.4765 40.996 62.2633 40.9328L61.3021 40.6627L57.6235 39.5911L44.0943 35.6211L34.7569 32.8704L29.5823 31.3347L26.8613 30.5289C26.4024 30.4023 25.9362 30.2293 25.4809 30.0521L24.8052 29.7188C24.5847 29.6007 24.3752 29.4488 24.1583 29.318C22.2989 28.0527 20.8932 26.0461 20.1998 23.6673C19.5065 21.2884 19.5721 18.6973 20.3846 16.3704C21.1971 14.0435 22.7019 12.1373 24.6221 11.0025C26.5424 9.86764 28.749 9.58041 30.8362 10.1936L55.4084 17.4755L66.1226 20.6566C66.5417 20.7873 66.9609 20.8928 67.3692 21.0531C67.5716 21.1291 67.7812 21.1881 67.9763 21.2852L68.5617 21.5721C69.3129 21.9769 70.0112 22.5039 70.6359 23.1373L70.8672 23.3651L71.0767 23.6183C71.2177 23.787 71.3622 23.9473 71.4959 24.1203C71.7537 24.4689 71.9949 24.8337 72.2186 25.213C73.4461 27.3365 73.9547 29.9163 73.646 32.4527C73.4817 33.8154 73.0869 35.1263 72.4845 36.3091C71.8821 37.4919 71.0842 38.5229 70.1372 39.3422C69.3936 39.9733 68.5741 40.4723 67.7053 40.8231C66.4857 41.3045 65.1902 41.4658 63.9111 41.2956C63.5834 41.2629 63.2585 41.2009 62.939 41.1099L62.6246 41.0214Z" fill="#263238"/>
<path d="M26.9694 25.6813C26.9694 25.6813 26.8718 25.618 26.7164 25.4704C26.4969 25.2597 26.2926 25.0283 26.1057 24.7785C25.8253 24.4103 25.5738 24.0135 25.3541 23.5929C25.0889 23.075 24.8674 22.5282 24.6928 21.9602C24.5254 21.3897 24.4044 20.8021 24.3315 20.2051C24.2799 19.7154 24.2641 19.2214 24.2845 18.7285C24.2965 18.3981 24.3315 18.0693 24.3893 17.7455C24.4032 17.6249 24.4312 17.5071 24.4724 17.3953C24.5085 17.3953 24.4254 17.91 24.4182 18.7327C24.4147 19.2156 24.4437 19.698 24.5049 20.1756C24.5817 20.7579 24.7026 21.3311 24.8663 21.8885C25.038 22.4427 25.2496 22.979 25.4986 23.4917C25.7084 23.9065 25.9439 24.3027 26.2033 24.6772C26.655 25.3143 26.9947 25.6518 26.9694 25.6813Z" fill="#263238"/>
<path d="M28.3644 25.9977C27.8077 25.4433 27.3529 24.7631 27.0274 23.998C26.6533 23.2658 26.4076 22.4541 26.3047 21.61C26.3625 21.61 26.6299 22.6817 27.2045 23.8925C27.779 25.1033 28.4078 25.9556 28.3644 25.9977Z" fill="#263238"/>
<path d="M30.5902 26.9681C30.0809 26.6496 29.6418 26.1976 29.3074 25.6476C28.9252 25.142 28.6515 24.5375 28.5088 23.8841C28.5594 23.8588 28.8701 24.6646 29.4555 25.5126C30.0409 26.3606 30.6263 26.9133 30.5902 26.9681Z" fill="#263238"/>
<path d="M68.3374 26.0189C68.4072 26.1292 68.4643 26.2498 68.5073 26.3775C68.5685 26.5137 68.6216 26.6546 68.6663 26.7994C68.7342 26.9959 68.7909 27.1974 68.8361 27.4027C68.9631 27.9373 69.0418 28.4859 69.071 29.0396C69.1019 29.7183 69.0679 30.399 68.9698 31.0689C68.8624 31.7355 68.6928 32.3863 68.4639 33.0096C68.2673 33.519 68.0251 34.0027 67.7412 34.4525C67.6385 34.6268 67.5263 34.7931 67.4051 34.9503C67.3192 35.0755 67.225 35.1926 67.1233 35.3005C66.9607 35.4819 66.8667 35.579 66.8595 35.5663C66.8523 35.5536 67.1919 35.1444 67.6328 34.3639C67.8883 33.9119 68.1073 33.4331 68.2868 32.9337C68.5029 32.3191 68.664 31.68 68.7674 31.0267C68.8619 30.3733 68.8994 29.7103 68.8795 29.0481C68.8587 28.5064 68.7946 27.9683 68.6879 27.4406C68.5217 26.5631 68.3013 26.04 68.3374 26.0189Z" fill="#263238"/>
<path d="M69.6456 26.3099C69.8036 26.5124 69.9264 26.7488 70.007 27.0061C70.4892 28.2279 70.5926 29.6075 70.2997 30.9086C70.2546 31.1792 70.165 31.4371 70.0359 31.668C70.4665 29.8846 70.3238 27.979 69.6348 26.3099H69.6456Z" fill="#263238"/>
<path d="M67.9979 26.9554C68.2617 27.7093 68.3824 28.5209 68.3519 29.3344C68.3213 30.1479 68.1401 30.944 67.8208 31.668C67.986 30.8988 68.1008 30.116 68.1641 29.3265C68.163 28.5322 68.1075 27.7393 67.9979 26.9554Z" fill="#263238"/>
<path d="M65.9671 16.9186C65.9671 16.9186 55.9829 15.3745 49.9663 20.1165L50.7794 20.4203C50.7794 20.4203 55.542 18.6315 57.4789 20.3191C57.4789 20.3191 65.1794 19.2474 65.9671 16.9186Z" fill="#C53F3F"/>
<path d="M49.3951 19.4753C49.3951 19.4753 43.4689 9.82656 36.7477 6.00842L34.0664 12.7882C34.0664 12.7882 44.5457 12.7882 48.7916 19.6946L49.3951 19.4753Z" fill="#C53F3F"/>
<path opacity="0.4" d="M65.9671 16.9186C65.9671 16.9186 55.9829 15.3745 49.9663 20.1165L50.7794 20.4203C50.7794 20.4203 55.542 18.6315 57.4789 20.3191C57.4789 20.3191 65.1794 19.2474 65.9671 16.9186Z" fill="black"/>
<path opacity="0.4" d="M49.3951 19.4753C49.3951 19.4753 43.4689 9.82656 36.7477 6.00842L34.0664 12.7882C34.0664 12.7882 44.5457 12.7882 48.7916 19.6946L49.3951 19.4753Z" fill="black"/>
<path d="M36.766 6L32.9971 14.8344C32.9971 14.8344 47.1261 20.3781 49.0268 20.8253L49.287 19.8761C49.287 19.8761 38.2331 12.6701 36.766 6Z" fill="#C53F3F"/>
<path d="M65.9667 16.9186C65.9667 16.9186 64.561 20.6776 49.9658 20.1165L49.6768 21.1755C49.6768 21.1755 63.3179 27.12 64.4923 26.0779C65.5728 23.4495 65.992 20.3486 65.9667 16.9186Z" fill="#C53F3F"/>
<path d="M50.0565 20.492C49.8831 21.1122 49.435 21.5046 49.052 21.3611C48.6689 21.2177 48.4955 20.5933 48.6689 19.9731C48.8424 19.3529 49.2868 18.9605 49.6699 19.104C50.0529 19.2474 50.2264 19.8676 50.0565 20.492Z" fill="#C53F3F"/>
<path d="M49.7963 36.9543L49.1567 20.9815L49.5398 20.9055C49.5398 20.9055 56.9367 36.0304 56.8464 35.9502C56.756 35.8701 52.3873 32.997 52.3873 32.997L49.7963 36.9543Z" fill="#C53F3F"/>
<path d="M48.7737 20.4752C48.7737 20.4752 38.3305 23.4622 35.5083 26.7234L39.5808 27.8836C39.5808 27.8836 39.9421 33.3682 39.794 33.132C39.6458 32.8957 48.2316 20.4752 48.6544 20.8971L48.7737 20.4752Z" fill="#C53F3F"/>
<g opacity="0.2">
<path d="M48.6183 20.0828C48.4077 20.0592 48.1988 20.0183 47.9931 19.9604C47.5884 19.8634 47.0103 19.7157 46.2984 19.5006C44.4466 18.95 42.6344 18.232 40.878 17.3531C39.1122 16.4859 37.4446 15.3679 35.913 14.0244C35.6131 13.7755 35.3746 13.5012 35.1469 13.2861C34.9565 13.0988 34.7744 12.9002 34.6013 12.6912C34.4447 12.5221 34.2986 12.3402 34.1641 12.147C34.3375 12.2918 34.5006 12.4526 34.6519 12.6279C34.8001 12.7883 34.9843 12.9865 35.2156 13.1933C35.4469 13.4 35.689 13.6616 35.9925 13.8978C37.5354 15.1981 39.1999 16.2893 40.9539 17.1506C42.7051 18.0225 44.5038 18.7582 46.3381 19.3529C47.0428 19.585 47.6137 19.7748 48.0112 19.8761C48.2183 19.9243 48.4214 19.9935 48.6183 20.0828Z" fill="white"/>
<path d="M48.7339 19.644C48.5211 19.6017 48.311 19.5425 48.1051 19.4668C47.9064 19.4035 47.6607 19.3234 47.3824 19.2095C47.1042 19.0955 46.779 18.9859 46.4357 18.8213C45.618 18.4651 44.8192 18.0523 44.0435 17.5852C43.094 17.0095 42.1767 16.3642 41.2972 15.6529C40.4262 14.9293 39.5947 14.1431 38.8075 13.2987C38.1698 12.6054 37.5666 11.8701 37.0007 11.0965C36.7514 10.7758 36.549 10.4594 36.3611 10.1936C36.1732 9.92781 36.025 9.68311 35.9058 9.48482C35.7711 9.28693 35.6503 9.07671 35.5444 8.8562C35.6961 9.03659 35.8362 9.22977 35.9636 9.43419C36.0901 9.62404 36.2491 9.85609 36.4442 10.1134C36.6393 10.3708 36.8453 10.683 37.0983 10.9952C37.5933 11.6407 38.2112 12.379 38.9303 13.1511C40.4995 14.8254 42.2472 16.2562 44.1302 17.408C44.8977 17.8767 45.6853 18.2991 46.4899 18.6737C46.8296 18.8466 47.1512 18.969 47.4258 19.0956C47.7004 19.2221 47.9425 19.3107 48.1485 19.3824C48.3496 19.4501 48.5455 19.5376 48.7339 19.644Z" fill="white"/>
<path d="M65.3201 23.4832C65.1199 23.5448 64.9156 23.5872 64.7094 23.6098C64.5107 23.6478 64.2686 23.6815 63.9867 23.711C63.7049 23.7406 63.3832 23.7828 63.0255 23.7996C62.3028 23.8545 61.4572 23.8629 60.5141 23.825C59.5709 23.787 58.5302 23.6689 57.4498 23.4832C55.6043 23.1568 53.7894 22.627 52.0295 21.9011C51.3573 21.6227 50.8189 21.3738 50.4539 21.1797C50.261 21.0949 50.0748 20.9904 49.8975 20.8675C50.0969 20.9291 50.2925 21.0066 50.4829 21.0995C50.8442 21.2683 51.3971 21.4961 52.0728 21.7535C53.836 22.4323 55.6441 22.9403 57.4787 23.2723C58.5628 23.4537 59.5818 23.5634 60.5213 23.6267C61.4608 23.69 62.3064 23.6815 63.0183 23.6267C63.3796 23.6267 63.694 23.5887 63.9759 23.5718C64.2577 23.555 64.5034 23.5296 64.6986 23.5085C64.9049 23.4818 65.1127 23.4734 65.3201 23.4832Z" fill="white"/>
<path d="M65.9126 19.8718C65.7278 19.9992 65.5358 20.1119 65.3381 20.2093C65.1538 20.3148 64.9225 20.4329 64.6515 20.5553C64.3805 20.6776 64.0697 20.8295 63.7156 20.9561C63.3615 21.0827 62.9929 21.2388 62.5592 21.378C62.1256 21.5172 61.6884 21.6227 61.2114 21.7408C60.1683 21.9625 59.1128 22.0951 58.0531 22.1374C56.9939 22.1635 55.9345 22.0958 54.8841 21.9349C54.4034 21.8463 53.9409 21.7746 53.5181 21.6564C53.0953 21.5383 52.7015 21.4371 52.3473 21.3231C51.9932 21.2092 51.6752 21.0869 51.397 20.9814C51.1187 20.8759 50.8802 20.7705 50.6743 20.6776C50.473 20.5949 50.2773 20.4948 50.0889 20.3781C50.2974 20.4308 50.5017 20.5042 50.6996 20.5975C50.8911 20.6776 51.1296 20.7705 51.4223 20.8633C51.715 20.9561 52.0149 21.0784 52.3726 21.1713C52.7304 21.2641 53.117 21.3906 53.5434 21.4792C53.9698 21.5678 54.4215 21.6522 54.8985 21.7366C55.9416 21.8815 56.992 21.9421 58.0423 21.918C59.0915 21.8758 60.137 21.7504 61.1716 21.5425C61.645 21.4286 62.0967 21.3358 62.5123 21.2008C62.9278 21.0658 63.3181 20.9519 63.6686 20.8253C64.0191 20.6987 64.3299 20.568 64.6045 20.454C64.8792 20.3401 65.114 20.2389 65.3055 20.1461C65.5017 20.037 65.7047 19.9453 65.9126 19.8718Z" fill="white"/>
<path d="M53.1857 22.6479C53.0824 22.2372 53.059 21.8048 53.117 21.3822C53.1106 20.9564 53.1964 20.5355 53.3663 20.1587C53.3801 20.5735 53.3595 20.9889 53.3049 21.3991C53.3114 21.8196 53.2713 22.2393 53.1857 22.6479Z" fill="white"/>
<path d="M56.4233 23.9305C56.3515 23.2926 56.3406 22.6474 56.3907 22.0066C56.3805 21.3632 56.4338 20.7205 56.5497 20.0912C56.6212 20.7292 56.6321 21.3744 56.5822 22.0151C56.5931 22.6586 56.5398 23.3014 56.4233 23.9305Z" fill="white"/>
<path d="M60.1961 25.0063C60.1419 25.0063 60.3009 23.8166 60.3696 22.3484C60.4382 20.8802 60.4021 19.6904 60.4563 19.6862C60.6 20.5675 60.634 21.4684 60.5575 22.361C60.5453 23.2583 60.4236 24.1491 60.1961 25.0063Z" fill="white"/>
<path d="M63.5059 26.2003C63.5413 25.825 63.598 25.4529 63.6757 25.0865C63.824 24.197 63.9278 23.2983 63.9865 22.3948C64.0407 21.4919 64.0516 20.5863 64.019 19.682C63.9839 19.3066 63.9743 18.9285 63.9901 18.5513C64.082 18.915 64.1354 19.2905 64.1491 19.6694C64.2231 20.581 64.2316 21.4983 64.1744 22.4117C64.1196 23.3248 63.9987 24.2309 63.813 25.1202C63.7503 25.494 63.647 25.8569 63.5059 26.2003Z" fill="white"/>
<path d="M37.6908 9.13043C37.5317 9.43692 37.3529 9.72887 37.156 10.0038C36.2732 11.3806 35.5333 12.8746 34.9517 14.4547C34.847 14.7906 34.7201 15.1164 34.5723 15.4293C34.62 15.0735 34.7062 14.7262 34.8288 14.3957C35.0894 13.5817 35.4073 12.7943 35.7792 12.0415C36.1514 11.2897 36.5769 10.5756 37.0512 9.90672C37.2346 9.61666 37.4496 9.3557 37.6908 9.13043Z" fill="white"/>
<path d="M39.8698 11.6196C39.9168 11.6618 39.1905 12.59 38.5581 13.9316C37.9257 15.2732 37.6294 16.463 37.5752 16.463C37.5835 16.1867 37.6324 15.9141 37.7197 15.6571C37.8911 15.0236 38.1163 14.4116 38.3919 13.8303C38.6678 13.2492 38.9935 12.7021 39.3639 12.1976C39.5032 11.9728 39.6743 11.7773 39.8698 11.6196Z" fill="white"/>
<path d="M42.2803 13.9527C42.3237 13.9907 41.8503 14.7965 41.3733 15.8554C40.8963 16.9144 40.5928 17.8172 40.5386 17.7961C40.8408 16.3678 41.4389 15.048 42.2803 13.9527Z" fill="white"/>
<path d="M44.1627 15.9651C43.9344 16.8993 43.5872 17.7881 43.1328 18.6019C43.3611 17.6677 43.7083 16.7789 44.1627 15.9651Z" fill="white"/>
<path d="M46.5657 17.1886C46.5217 17.6355 46.4168 18.0714 46.2549 18.4796C46.1511 18.9121 45.9863 19.3213 45.7671 19.6904C45.8128 19.252 45.9177 18.8248 46.0779 18.4247C46.1803 17.9838 46.3452 17.566 46.5657 17.1886Z" fill="white"/>
<path d="M48.6001 20.6945C48.5036 20.8181 48.3944 20.9273 48.2749 21.0194C48.0544 21.2177 47.7328 21.4961 47.3317 21.8294C46.5259 22.5044 45.3985 23.4031 44.1446 24.3608L40.9249 26.8542L39.9492 27.6093C39.8367 27.7083 39.7156 27.7932 39.5879 27.8625C39.6852 27.7383 39.7957 27.6291 39.9167 27.5376C40.1335 27.3393 40.4551 27.0609 40.8562 26.7276C41.6621 26.0526 42.7895 25.1539 44.047 24.1751L47.2631 21.6817L48.2387 20.9266C48.352 20.8349 48.4731 20.7572 48.6001 20.6945Z" fill="white"/>
<path d="M47.8992 20.7747C47.7558 20.8815 47.6032 20.9706 47.4439 21.0405L46.2045 21.707L42.0706 23.9389C40.4589 24.8122 38.9882 25.5885 37.915 26.1116C37.3766 26.3774 36.9357 26.5799 36.6322 26.7149C36.4758 26.7933 36.3137 26.8554 36.1479 26.9005C36.2914 26.7937 36.444 26.7046 36.6033 26.6348L37.8608 25.9682L41.9947 23.7364C43.6063 22.863 45.0734 22.0867 46.1503 21.5636C46.6887 21.302 47.1295 21.0953 47.4331 20.9645C47.5833 20.8851 47.7393 20.8216 47.8992 20.7747Z" fill="white"/>
<path d="M41.7381 30.0226C41.702 30.0226 41.7381 29.6007 41.6189 28.9636C41.5461 28.592 41.4319 28.2332 41.2792 27.8962C41.0804 27.4875 40.8376 27.1104 40.5565 26.774C40.0389 26.167 39.4364 25.6676 38.775 25.2974C38.2655 25.0105 37.9294 24.8755 37.9366 24.8502C38.2465 24.8928 38.5482 24.9955 38.8292 25.1539C39.5268 25.4943 40.1594 25.9934 40.6902 26.6221C40.9771 26.9746 41.2203 27.3722 41.4129 27.8034C41.5681 28.1589 41.6754 28.5403 41.7309 28.9341C41.7735 29.1968 41.7844 29.4652 41.7634 29.7315C41.767 29.9044 41.7526 30.0226 41.7381 30.0226Z" fill="white"/>
<path d="M43.6748 26.9765C43.4164 26.2222 43.0711 25.5125 42.6486 24.8671C42.1817 24.2709 41.6467 23.7527 41.0586 23.3271C41.266 23.3662 41.4635 23.4584 41.6368 23.5972C42.0758 23.8906 42.4672 24.2719 42.7931 24.7236C43.1194 25.1765 43.3739 25.6937 43.5447 26.2509C43.6303 26.4798 43.6746 26.7268 43.6748 26.9765Z" fill="white"/>
<path d="M45.59 24.6139C45.4409 24.1372 45.2684 23.671 45.0733 23.2175C44.8259 22.8012 44.5606 22.3999 44.2783 22.0151C44.693 22.2444 45.0301 22.629 45.2359 23.1078C45.4971 23.5483 45.622 24.0795 45.59 24.6139Z" fill="white"/>
<path d="M49.5975 21.243C49.6517 21.243 49.9588 24.2553 50.2588 27.9933C50.5587 31.7312 50.7863 34.7436 50.7321 34.7436C50.6779 34.7436 50.3708 31.7355 50.0709 27.9933C49.7709 24.2511 49.5469 21.2472 49.5975 21.243Z" fill="white"/>
<path d="M53.504 33.6298C53.4376 33.4808 53.3855 33.3238 53.3486 33.1615L52.9873 31.8621C52.6765 30.7651 52.2356 29.2548 51.7117 27.6052C51.1877 25.9555 50.6746 24.4705 50.2988 23.3862L49.8579 22.1205C49.7942 21.9686 49.7457 21.8087 49.7134 21.6438C49.7957 21.7755 49.8659 21.9169 49.923 22.0657C50.0494 22.3526 50.2193 22.7787 50.4216 23.3061C50.83 24.3566 51.3612 25.8374 51.8887 27.4912C52.4163 29.1451 52.8355 30.6681 53.1137 31.7777C53.2547 32.3304 53.3594 32.7818 53.4281 33.0982C53.474 33.2705 53.4996 33.4494 53.504 33.6298Z" fill="white"/>
<path d="M54.7577 31.3262C52.8864 31.0535 50.9947 31.5973 49.4458 32.8535C49.6264 32.6031 49.8443 32.393 50.089 32.2333C51.2329 31.3737 52.5899 30.9847 53.9447 31.1279C54.2237 31.1367 54.4991 31.2038 54.7577 31.3262Z" fill="white"/>
<path d="M53.5545 28.7569C52.8555 28.7656 52.1592 28.859 51.4767 29.0353C50.81 29.2819 50.1679 29.6115 49.5615 30.0183C50.0898 29.453 50.7262 29.0432 51.4176 28.823C52.109 28.6029 52.8354 28.5787 53.5364 28.7527L53.5545 28.7569Z" fill="white"/>
<path d="M51.9427 25.964C51.4769 25.9599 51.012 26.0108 50.5551 26.1159C50.1148 26.2918 49.692 26.5223 49.2939 26.8036C49.5892 26.3385 50.0219 26.0182 50.5081 25.9049C50.9764 25.7193 51.4867 25.7403 51.9427 25.964Z" fill="white"/>
<path d="M51.2129 24.2722C50.8651 24.1857 50.5126 24.1279 50.1578 24.0992C49.8044 24.1364 49.4541 24.2055 49.1099 24.3059C49.2507 24.1559 49.4163 24.0411 49.5965 23.9686C49.7767 23.896 49.9677 23.8673 50.1578 23.884C50.347 23.8625 50.538 23.8858 50.7193 23.9525C50.9006 24.0192 51.0685 24.1279 51.2129 24.2722Z" fill="white"/>
</g>
<path d="M50.1213 20.1208C50.1297 20.2565 50.1099 20.3925 50.0635 20.5174C50.0249 20.6634 49.974 20.8048 49.9117 20.9392C49.8335 21.1292 49.7074 21.2867 49.5504 21.3907H49.5793C49.5142 21.4432 49.4401 21.4787 49.3621 21.4948C49.2842 21.5108 49.2042 21.5069 49.1276 21.4835C48.9621 21.4513 48.8113 21.3528 48.7012 21.205C48.5445 20.92 48.484 20.5773 48.5314 20.2431C48.5501 19.9752 48.6314 19.7184 48.7662 19.5006C49.012 19.1251 49.2902 19.0787 49.283 19.1251C49.2758 19.1715 49.0626 19.239 48.8747 19.585C48.7724 19.7908 48.7142 20.0223 48.7048 20.26C48.6719 20.5414 48.7229 20.8274 48.8494 21.07C48.9261 21.1685 49.0268 21.237 49.138 21.2665C49.2491 21.2959 49.3653 21.2848 49.4709 21.2346H49.489C49.6137 21.1495 49.7181 21.029 49.7925 20.8844C49.8594 20.7645 49.9186 20.639 49.9696 20.5089C50.0563 20.2516 50.0997 20.1166 50.1213 20.1208Z" fill="#263238"/>
<path d="M49.2182 21.3442C49.164 21.3231 49.2724 20.8506 49.2182 20.2726C49.164 19.6946 49.0086 19.2432 49.0556 19.2137C49.2572 19.5122 49.3792 19.8734 49.4061 20.2523C49.4331 20.6312 49.364 21.0109 49.2074 21.3442H49.2182Z" fill="#263238"/>
<path d="M49.6808 24.5085C49.5512 23.9713 49.482 23.4168 49.4748 22.8589C49.4101 22.3073 49.4101 21.7481 49.4748 21.1966C49.671 22.2847 49.7451 23.398 49.6952 24.5085H49.6808Z" fill="#263238"/>
<path d="M48.6073 20.741C48.1414 21.0443 47.6585 21.3107 47.1619 21.5383C46.6885 21.8344 46.1983 22.0924 45.6948 22.3104C46.1082 21.8996 46.5771 21.5717 47.0824 21.3401C47.5595 21.045 48.0745 20.8426 48.6073 20.741Z" fill="#263238"/>
</g>
<defs>
<filter id="filter0_d_2809_14017" x="-2" y="-1" width="110.489" height="162.767" filterUnits="userSpaceOnUse" color-interpolation-filters="sRGB">
<feFlood flood-opacity="0" result="BackgroundImageFix"/>
<feColorMatrix in="SourceAlpha" type="matrix" values="0 0 0 0 0 0 0 0 0 0 0 0 0 0 0 0 0 0 127 0" result="hardAlpha"/>
<feOffset dy="1"/>
<feGaussianBlur stdDeviation="1"/>
<feComposite in2="hardAlpha" operator="out"/>
<feColorMatrix type="matrix" values="0 0 0 0 0 0 0 0 0 0 0 0 0 0 0 0 0 0 0.05 0"/>
<feBlend mode="normal" in2="BackgroundImageFix" result="effect1_dropShadow_2809_14017"/>
<feBlend mode="normal" in="SourceGraphic" in2="effect1_dropShadow_2809_14017" result="shape"/>
</filter>
</defs>
</svg>
